<svg width="24" height="23" viewBox="0 0 24 23" fill="none" xmlns="http://www.w3.org/2000/svg">
<g clip-path="url(#clip0_222_938)">
<path d="M12.0011 0.720215C11.7784 0.720215 11.5647 0.80134 11.4072 0.945743C11.2496 1.09015 11.1611 1.286 11.1611 1.49021V19.0902C11.1611 19.2944 11.2496 19.4903 11.4072 19.6347C11.5647 19.7791 11.7784 19.8602 12.0011 19.8602C12.2239 19.8602 12.4376 19.7791 12.5951 19.6347C12.7526 19.4903 12.8411 19.2944 12.8411 19.0902V11.0602H23.1611C23.3839 11.0602 23.5976 10.9791 23.7551 10.8347C23.9126 10.6903 24.0011 10.4944 24.0011 10.2902V1.49021C24.0011 1.286 23.9126 1.09015 23.7551 0.945743C23.5976 0.80134 23.3839 0.720215 23.1611 0.720215H12.1211C12.1008 0.720356 12.0805 0.72109 12.0602 0.722415C12.0405 0.721126 12.0208 0.720393 12.0011 0.720215Z" fill="black"/>
<path d="M9.12174 17.6143C6.57918 17.9438 4.80078 18.7319 4.80078 19.8915C4.80078 21.4535 7.77222 22.72 12.0008 22.72C16.2293 22.72 19.2008 21.4537 19.2008 19.8915C19.2008 18.7316 17.4224 17.9438 14.8801 17.6145L14.5277 18.1643C16.4441 18.4078 17.7608 18.9202 17.7608 19.5144C17.7608 20.3475 15.182 21.0229 12.0008 21.0229C8.81958 21.0229 6.24078 20.3475 6.24078 19.5144C6.24054 18.9222 7.54878 18.4104 9.47094 18.1658L9.12174 17.6143Z" fill="black"/>
</g>
<defs>
<clipPath id="clip0_222_938">
<rect width="24" height="22" fill="white" transform="translate(0.000976562 0.720215)"/>
</clipPath>
</defs>
</svg>
