<svg width="30" height="30" viewBox="0 0 30 30" fill="none" xmlns="http://www.w3.org/2000/svg">
<g clip-path="url(#clip0_167_658)">
<path d="M26.25 0C26.7676 0 27.251 0.0976563 27.7002 0.292969C28.1494 0.488281 28.5498 0.756836 28.9014 1.09863C29.2529 1.44043 29.5215 1.83594 29.707 2.28516C29.8926 2.73438 29.9902 3.22266 30 3.75C30 4.26758 29.9023 4.75098 29.707 5.2002C29.5117 5.64941 29.2432 6.0498 28.9014 6.40137C28.5596 6.75293 28.1641 7.02148 27.7148 7.20703C27.2656 7.39258 26.7773 7.49023 26.25 7.5H24.375V26.25C24.375 26.7676 24.2773 27.251 24.082 27.7002C23.8867 28.1494 23.6182 28.5498 23.2764 28.9014C22.9346 29.2529 22.5391 29.5215 22.0898 29.707C21.6406 29.8926 21.1523 29.9902 20.625 30H3.75C3.23242 30 2.74902 29.9023 2.2998 29.707C1.85059 29.5117 1.4502 29.2432 1.09863 28.9014C0.74707 28.5596 0.478516 28.1641 0.292969 27.7148C0.107422 27.2656 0.00976562 26.7773 0 26.25C0 25.7324 0.0976563 25.249 0.292969 24.7998C0.488281 24.3506 0.756836 23.9502 1.09863 23.5986C1.44043 23.2471 1.83594 22.9785 2.28516 22.793C2.73438 22.6074 3.22266 22.5098 3.75 22.5V3.75C3.75 3.23242 3.84766 2.74902 4.04297 2.2998C4.23828 1.85059 4.50684 1.4502 4.84863 1.09863C5.19043 0.74707 5.58594 0.478516 6.03516 0.292969C6.48438 0.107422 6.97266 0.00976562 7.5 0H26.25ZM17.373 28.125C17.041 27.5391 16.875 26.9141 16.875 26.25C16.875 25.5859 17.041 24.9609 17.373 24.375H3.75C3.48633 24.375 3.24219 24.4238 3.01758 24.5215C2.79297 24.6191 2.59766 24.751 2.43164 24.917C2.26562 25.083 2.12891 25.2832 2.02148 25.5176C1.91406 25.752 1.86523 25.9961 1.875 26.25C1.875 26.5137 1.92383 26.7578 2.02148 26.9824C2.11914 27.207 2.25098 27.4023 2.41699 27.5684C2.58301 27.7344 2.7832 27.8711 3.01758 27.9785C3.25195 28.0859 3.49609 28.1348 3.75 28.125H17.373ZM20.625 28.125C20.8887 28.125 21.1328 28.0762 21.3574 27.9785C21.582 27.8809 21.7773 27.749 21.9434 27.583C22.1094 27.417 22.2461 27.2168 22.3535 26.9824C22.4609 26.748 22.5098 26.5039 22.5 26.25V3.75C22.5 3.08594 22.666 2.46094 22.998 1.875H7.5C7.23633 1.875 6.99219 1.92383 6.76758 2.02148C6.54297 2.11914 6.34766 2.25098 6.18164 2.41699C6.01562 2.58301 5.87891 2.7832 5.77148 3.01758C5.66406 3.25195 5.61523 3.49609 5.625 3.75V22.5H20.625C20.8789 22.5 21.0986 22.5928 21.2842 22.7783C21.4697 22.9639 21.5625 23.1836 21.5625 23.4375C21.5625 23.6914 21.4697 23.9111 21.2842 24.0967C21.0986 24.2822 20.8789 24.375 20.625 24.375C20.3809 24.375 20.1416 24.4189 19.9072 24.5068C19.6729 24.5947 19.4678 24.7314 19.292 24.917C19.1162 25.0928 18.9844 25.2979 18.8965 25.5322C18.8086 25.7666 18.7598 26.0059 18.75 26.25C18.75 26.5137 18.7988 26.7578 18.8965 26.9824C18.9941 27.207 19.126 27.4023 19.292 27.5684C19.458 27.7344 19.6582 27.8711 19.8926 27.9785C20.127 28.0859 20.3711 28.1348 20.625 28.125ZM26.25 5.625C26.5137 5.625 26.7578 5.57617 26.9824 5.47852C27.207 5.38086 27.4023 5.24902 27.5684 5.08301C27.7344 4.91699 27.8711 4.7168 27.9785 4.48242C28.0859 4.24805 28.1348 4.00391 28.125 3.75C28.125 3.48633 28.0762 3.24219 27.9785 3.01758C27.8809 2.79297 27.749 2.59766 27.583 2.43164C27.417 2.26562 27.2168 2.12891 26.9824 2.02148C26.748 1.91406 26.5039 1.86523 26.25 1.875C25.9863 1.875 25.7422 1.92383 25.5176 2.02148C25.293 2.11914 25.0977 2.25098 24.9316 2.41699C24.7656 2.58301 24.6289 2.7832 24.5215 3.01758C24.4141 3.25195 24.3652 3.49609 24.375 3.75V5.625H26.25ZM7.5 5.625H20.625V7.5H7.5V5.625ZM7.5 9.375H20.625V11.25H7.5V9.375ZM7.5 13.125H20.625V15H7.5V13.125ZM7.5 16.875H20.625V18.75H7.5V16.875Z" fill="black"/>
</g>
<defs>
<clipPath id="clip0_167_658">
<rect width="30" height="30" fill="white"/>
</clipPath>
</defs>
</svg>
