<svg width="30" height="30" viewBox="0 0 30 30" fill="none" xmlns="http://www.w3.org/2000/svg">
<path d="M8.75 25.0313V13.75L10.75 13.75C10.8958 13.75 11.0417 13.7658 11.1875 13.7975C11.3333 13.8292 11.4792 13.8654 11.625 13.9063L20.2812 17.125C20.5729 17.2292 20.8075 17.4167 20.985 17.6875C21.1625 17.9583 21.2508 18.2396 21.25 18.5313C21.25 18.9688 21.0987 19.3229 20.7962 19.5938C20.4937 19.8646 20.145 20 19.75 20H16.4688C16.3646 20 16.2867 19.995 16.235 19.985C16.1833 19.975 16.1154 19.9488 16.0312 19.9063L14.0312 19.125L13.625 20.3438L16.0312 21.1875C16.0729 21.2083 16.1354 21.2242 16.2188 21.235C16.3021 21.2458 16.375 21.2508 16.4375 21.25H25C25.6667 21.25 26.25 21.4896 26.75 21.9688C27.25 22.4479 27.5 23.0417 27.5 23.75L17.5312 27.5L8.75 25.0313ZM1.25 27.5V13.75H6.25V27.5H1.25ZM20 16.25L14.8125 11.1875C14.1667 10.5625 13.62 9.87 13.1725 9.11C12.725 8.35 12.5008 7.52167 12.5 6.625C12.5 5.47917 12.9013 4.50542 13.7038 3.70375C14.5063 2.90209 15.48 2.50084 16.625 2.5C17.2917 2.5 17.9167 2.64084 18.5 2.9225C19.0833 3.20417 19.5833 3.58417 20 4.0625C20.4167 3.58334 20.9167 3.20292 21.5 2.92125C22.0833 2.63959 22.7083 2.49917 23.375 2.5C24.5208 2.5 25.495 2.90125 26.2975 3.70375C27.1 4.50625 27.5008 5.48 27.5 6.625C27.5 7.52084 27.2812 8.34917 26.8438 9.11C26.4062 9.87084 25.8646 10.5633 25.2188 11.1875L20 16.25Z" fill="black"/>
</svg>
