<svg width="16" height="16" viewBox="0 0 16 16" fill="none" xmlns="http://www.w3.org/2000/svg">
<path d="M8.00016 7.66683C7.55814 7.66683 7.13421 7.49123 6.82165 7.17867C6.50909 6.86611 6.3335 6.44219 6.3335 6.00016C6.3335 5.55814 6.50909 5.13421 6.82165 4.82165C7.13421 4.50909 7.55814 4.3335 8.00016 4.3335C8.44219 4.3335 8.86611 4.50909 9.17867 4.82165C9.49123 5.13421 9.66683 5.55814 9.66683 6.00016C9.66683 6.21903 9.62372 6.43576 9.53996 6.63797C9.4562 6.84018 9.33344 7.02391 9.17867 7.17867C9.02391 7.33344 8.84018 7.4562 8.63797 7.53996C8.43576 7.62372 8.21903 7.66683 8.00016 7.66683ZM8.00016 1.3335C6.76249 1.3335 5.5755 1.82516 4.70033 2.70033C3.82516 3.5755 3.3335 4.76249 3.3335 6.00016C3.3335 9.50016 8.00016 14.6668 8.00016 14.6668C8.00016 14.6668 12.6668 9.50016 12.6668 6.00016C12.6668 4.76249 12.1752 3.5755 11.3 2.70033C10.4248 1.82516 9.23784 1.3335 8.00016 1.3335Z" fill="#6C6C6C"/>
</svg>
