<svg width="16" height="16" viewBox="0 0 16 16" fill="none" xmlns="http://www.w3.org/2000/svg">
<path d="M13.3332 1.3335H2.6665V2.66683L6.53984 5.5735C5.36433 5.96111 4.39082 6.79961 3.83328 7.9047C3.27574 9.00978 3.17978 10.291 3.5665 11.4668C3.75783 12.0493 4.06212 12.5883 4.46196 13.0531C4.8618 13.5178 5.34935 13.8992 5.89671 14.1754C6.44407 14.4515 7.04051 14.6171 7.65191 14.6625C8.26331 14.7079 8.87767 14.6324 9.45984 14.4402C10.3935 14.1333 11.2064 13.5395 11.7827 12.7434C12.3591 11.9473 12.6693 10.9896 12.6693 10.0068C12.6693 9.02404 12.3591 8.06633 11.7827 7.27026C11.2064 6.47418 10.3935 5.88037 9.45984 5.5735L13.3332 2.66683V1.3335ZM9.95984 13.0002L7.99984 11.8535L6.03984 13.0002L6.55984 10.7802L4.83317 9.28683L7.1065 9.0935L7.99984 7.00016L8.89317 9.0935L11.1665 9.28683L9.43984 10.7802L9.95984 13.0002Z" fill="#00B2FF"/>
</svg>
