<svg width="18" height="18" viewBox="0 0 18 18" fill="none" xmlns="http://www.w3.org/2000/svg">
<path d="M9 7.22222C9.40856 7.22222 9.81311 7.14175 10.1906 6.9854C10.568 6.82906 10.911 6.59989 11.1999 6.311C11.4888 6.02211 11.7179 5.67914 11.8743 5.30168C12.0306 4.92422 12.1111 4.51967 12.1111 4.11111C12.1111 3.70255 12.0306 3.298 11.8743 2.92054C11.7179 2.54308 11.4888 2.20012 11.1999 1.91122C10.911 1.62233 10.568 1.39317 10.1906 1.23682C9.81311 1.08047 9.40856 1 9 1C8.17488 1 7.38356 1.32778 6.80011 1.91122C6.21667 2.49467 5.88889 3.28599 5.88889 4.11111C5.88889 4.93623 6.21667 5.72755 6.80011 6.311C7.38356 6.89445 8.17488 7.22222 9 7.22222ZM1 16.4667V17H17V16.4667C17 14.4756 17 13.48 16.6124 12.7191C16.2716 12.0501 15.7277 11.5062 15.0587 11.1653C14.2978 10.7778 13.3022 10.7778 11.3111 10.7778H6.68889C4.69778 10.7778 3.70222 10.7778 2.94133 11.1653C2.27234 11.5062 1.72843 12.0501 1.38756 12.7191C1 13.48 1 14.4756 1 16.4667Z" fill="black" stroke="black" stroke-linecap="round" stroke-linejoin="round"/>
</svg>
