<svg width="20" height="20" viewBox="0 0 20 20" fill="none" xmlns="http://www.w3.org/2000/svg">
<path d="M1.25 3.33301V4.58301C1.25 8.04134 3.09167 11.0663 5.83333 12.7497V16.6663H18.3333V14.9997C18.3333 12.783 13.8917 11.6663 11.6667 11.6663H11.4583C7.5 11.6663 4.16667 8.33301 4.16667 4.58301V3.33301M11.6667 3.33301C10.7826 3.33301 9.93477 3.6842 9.30964 4.30932C8.68452 4.93444 8.33333 5.78229 8.33333 6.66634C8.33333 7.5504 8.68452 8.39824 9.30964 9.02336C9.93477 9.64849 10.7826 9.99967 11.6667 9.99967C12.5507 9.99967 13.3986 9.64849 14.0237 9.02336C14.6488 8.39824 15 7.5504 15 6.66634C15 5.78229 14.6488 4.93444 14.0237 4.30932C13.3986 3.6842 12.5507 3.33301 11.6667 3.33301Z" fill="black"/>
</svg>
