<svg width="54" height="54" viewBox="0 0 54 54" fill="none" xmlns="http://www.w3.org/2000/svg">
<rect width="54" height="54" rx="27" fill="#CDCDCD"/>
<path d="M27 25.3333C27.6128 25.3333 28.2197 25.2126 28.7859 24.9781C29.352 24.7436 29.8665 24.3998 30.2998 23.9665C30.7332 23.5332 31.0769 23.0187 31.3114 22.4525C31.546 21.8863 31.6667 21.2795 31.6667 20.6667C31.6667 20.0538 31.546 19.447 31.3114 18.8808C31.0769 18.3146 30.7332 17.8002 30.2998 17.3668C29.8665 16.9335 29.352 16.5898 28.7859 16.3552C28.2197 16.1207 27.6128 16 27 16C25.7623 16 24.5753 16.4917 23.7002 17.3668C22.825 18.242 22.3333 19.429 22.3333 20.6667C22.3333 21.9043 22.825 23.0913 23.7002 23.9665C24.5753 24.8417 25.7623 25.3333 27 25.3333ZM15 39.2V40H39V39.2C39 36.2133 39 34.72 38.4187 33.5787C37.9073 32.5752 37.0915 31.7593 36.088 31.248C34.9467 30.6667 33.4533 30.6667 30.4667 30.6667H23.5333C20.5467 30.6667 19.0533 30.6667 17.912 31.248C16.9085 31.7593 16.0927 32.5752 15.5813 33.5787C15 34.72 15 36.2133 15 39.2Z" fill="#8F8F8F" stroke="#8F8F8F" stroke-width="4" stroke-linecap="round" stroke-linejoin="round"/>
</svg>
