<svg width="16" height="16" viewBox="0 0 16 16" fill="none" xmlns="http://www.w3.org/2000/svg">
<path fill-rule="evenodd" clip-rule="evenodd" d="M8.40016 7.66883L10.9942 10.2628L10.4288 10.8288L7.60016 8.00016V4.00016H8.40016V7.66883ZM8.00016 14.6668C4.31816 14.6668 1.3335 11.6822 1.3335 8.00016C1.3335 4.31816 4.31816 1.3335 8.00016 1.3335C11.6822 1.3335 14.6668 4.31816 14.6668 8.00016C14.6668 11.6822 11.6822 14.6668 8.00016 14.6668ZM8.00016 13.8668C9.5561 13.8668 11.0483 13.2487 12.1485 12.1485C13.2487 11.0483 13.8668 9.5561 13.8668 8.00016C13.8668 6.44423 13.2487 4.95202 12.1485 3.8518C11.0483 2.75159 9.5561 2.1335 8.00016 2.1335C6.44423 2.1335 4.95202 2.75159 3.8518 3.8518C2.75159 4.95202 2.1335 6.44423 2.1335 8.00016C2.1335 9.5561 2.75159 11.0483 3.8518 12.1485C4.95202 13.2487 6.44423 13.8668 8.00016 13.8668Z" fill="#6C6C6C"/>
</svg>
