<svg width="26" height="23" viewBox="0 0 26 23" fill="none" xmlns="http://www.w3.org/2000/svg">
<path d="M2.88889 8.625L5.05556 2.15625H20.9444L23.1111 8.625M20.9444 15.8125C20.3698 15.8125 19.8187 15.5853 19.4124 15.1809C19.0061 14.7766 18.7778 14.2281 18.7778 13.6562C18.7778 13.0844 19.0061 12.5359 19.4124 12.1316C19.8187 11.7272 20.3698 11.5 20.9444 11.5C21.5191 11.5 22.0702 11.7272 22.4765 12.1316C22.8828 12.5359 23.1111 13.0844 23.1111 13.6562C23.1111 14.2281 22.8828 14.7766 22.4765 15.1809C22.0702 15.5853 21.5191 15.8125 20.9444 15.8125ZM5.05556 15.8125C4.48092 15.8125 3.92982 15.5853 3.52349 15.1809C3.11716 14.7766 2.88889 14.2281 2.88889 13.6562C2.88889 13.0844 3.11716 12.5359 3.52349 12.1316C3.92982 11.7272 4.48092 11.5 5.05556 11.5C5.63019 11.5 6.18129 11.7272 6.58762 12.1316C6.99395 12.5359 7.22222 13.0844 7.22222 13.6562C7.22222 14.2281 6.99395 14.7766 6.58762 15.1809C6.18129 15.5853 5.63019 15.8125 5.05556 15.8125ZM22.9956 1.4375C22.7067 0.60375 21.8978 0 20.9444 0H5.05556C4.10222 0 3.29333 0.60375 3.00444 1.4375L0 10.0625V21.5625C0 21.9437 0.152182 22.3094 0.423068 22.579C0.693954 22.8486 1.06135 23 1.44444 23H2.88889C3.27198 23 3.63938 22.8486 3.91026 22.579C4.18115 22.3094 4.33333 21.9437 4.33333 21.5625V20.125H21.6667V21.5625C21.6667 21.9437 21.8188 22.3094 22.0897 22.579C22.3606 22.8486 22.728 23 23.1111 23H24.5556C24.9386 23 25.306 22.8486 25.5769 22.579C25.8478 22.3094 26 21.9437 26 21.5625V10.0625L22.9956 1.4375Z" fill="currentColor"/>
</svg>
