<svg width="28" height="27" viewBox="0 0 28 27" fill="none" xmlns="http://www.w3.org/2000/svg">
<path d="M14 10.7222C14.6639 10.7222 15.3213 10.5965 15.9347 10.3522C16.548 10.1079 17.1054 9.74983 17.5748 9.29844C18.0443 8.84704 18.4167 8.31115 18.6707 7.72138C18.9248 7.1316 19.0556 6.49948 19.0556 5.86111C19.0556 5.22274 18.9248 4.59062 18.6707 4.00084C18.4167 3.41107 18.0443 2.87518 17.5748 2.42379C17.1054 1.97239 16.548 1.61432 15.9347 1.37003C15.3213 1.12574 14.6639 1 14 1C12.6592 1 11.3733 1.51215 10.4252 2.42379C9.47709 3.33542 8.94445 4.57186 8.94445 5.86111C8.94445 7.15036 9.47709 8.3868 10.4252 9.29844C11.3733 10.2101 12.6592 10.7222 14 10.7222ZM1 25.1667V26H27V25.1667C27 22.0556 27 20.5 26.3702 19.3111C25.8163 18.2658 24.9324 17.416 23.8453 16.8833C22.6089 16.2778 20.9911 16.2778 17.7556 16.2778H10.2444C7.00891 16.2778 5.3911 16.2778 4.15467 16.8833C3.06756 17.416 2.1837 18.2658 1.62978 19.3111C1 20.5 1 22.0556 1 25.1667Z" fill="currentColor" stroke="currentColor" stroke-linecap="round" stroke-linejoin="round"/>
</svg>
