<svg width="35" height="35" viewBox="0 0 35 35" fill="none" xmlns="http://www.w3.org/2000/svg">
<path d="M5.83333 25.7353V13.3824H9.07407V9.26471H0V13.3824H3.24074V25.7353H5.83333ZM23.7776 25.7353L25.6019 21.2777L27.4261 25.7353H30.5183L27.1479 17.5L30.5183 9.26471H27.4261L25.6019 13.7223L23.7776 9.26471H20.6854L24.0558 17.5L20.6854 25.7353H23.7776ZM32.4074 9.26471H35V25.7353H32.4074V9.26471ZM0 0H35V4.11765H0V0ZM0 30.8824H35V35H0V30.8824ZM16.312 22.6471L16.9602 25.7353H19.693L16.2361 9.26471H12.5131L9.31786 25.7353H12.0307L12.6302 22.6471H16.312ZM14.3986 13.5298L15.4479 18.5294H13.4287L14.3986 13.5298Z" fill="currentColor"/>
</svg>
