<svg width="30" height="36" viewBox="0 0 30 36" fill="none" xmlns="http://www.w3.org/2000/svg">
<g filter="url(#filter0_d_770_668)">
<path d="M22.5002 5.60001C20.511 3.61089 17.8132 2.49341 15.0002 2.49341C12.1871 2.49341 9.48928 3.61089 7.50016 5.60001C5.51103 7.58913 4.39355 10.287 4.39355 13.1C4.39355 15.9131 5.51103 18.6109 7.50016 20.6L14.0877 27.2C14.2039 27.3172 14.3421 27.4102 14.4944 27.4736C14.6468 27.5371 14.8101 27.5698 14.9752 27.5698C15.1402 27.5698 15.3036 27.5371 15.4559 27.4736C15.6082 27.4102 15.7465 27.3172 15.8627 27.2L22.5002 20.5375C24.481 18.5567 25.5938 15.8701 25.5938 13.0688C25.5938 10.2674 24.481 7.58086 22.5002 5.60001V5.60001ZM20.7127 18.75L15.0002 24.4875L9.28766 18.75C8.15909 17.6204 7.39075 16.1816 7.07977 14.6154C6.7688 13.0492 6.92914 11.4259 7.54054 9.95086C8.15193 8.47578 9.18693 7.21507 10.5147 6.32811C11.8425 5.44114 13.4034 4.96774 15.0002 4.96774C16.5969 4.96774 18.1579 5.44114 19.4856 6.32811C20.8134 7.21507 21.8484 8.47578 22.4598 9.95086C23.0712 11.4259 23.2315 13.0492 22.9205 14.6154C22.6096 16.1816 21.8412 17.6204 20.7127 18.75V18.75ZM11.2502 9.26251C10.241 10.2747 9.6744 11.6457 9.6744 13.075C9.6744 14.5043 10.241 15.8753 11.2502 16.8875C11.9999 17.6385 12.9546 18.1514 13.9947 18.3618C15.0348 18.5722 16.1138 18.4707 17.0965 18.0702C18.0791 17.6697 18.9216 16.9879 19.5183 16.1103C20.1149 15.2328 20.4391 14.1986 20.4502 13.1375C20.4558 12.429 20.3193 11.7266 20.0488 11.0717C19.7783 10.4169 19.3792 9.82295 18.8752 9.32501C18.3797 8.81823 17.789 8.41443 17.1369 8.13684C16.4849 7.85925 15.7843 7.71335 15.0757 7.70755C14.367 7.70174 13.6642 7.83613 13.0076 8.103C12.3511 8.36986 11.7538 8.76392 11.2502 9.26251V9.26251ZM17.1127 15.1125C16.639 15.5934 16.0129 15.8949 15.3416 15.9653C14.6702 16.0358 13.9952 15.8708 13.432 15.4987C12.8688 15.1265 12.4524 14.5703 12.2539 13.9251C12.0554 13.2799 12.0872 12.5858 12.3439 11.9615C12.6005 11.3371 13.066 10.8213 13.6609 10.5022C14.2557 10.1831 14.943 10.0805 15.6051 10.212C16.2672 10.3435 16.863 10.701 17.2908 11.2232C17.7185 11.7454 17.9516 12.4 17.9502 13.075C17.932 13.8466 17.6083 14.5794 17.0502 15.1125H17.1127Z" fill="#4C3EED"/>
</g>
<defs>
<filter id="filter0_d_770_668" x="-4" y="0" width="38" height="38" filterUnits="userSpaceOnUse" color-interpolation-filters="sRGB">
<feFlood flood-opacity="0" result="BackgroundImageFix"/>
<feColorMatrix in="SourceAlpha" type="matrix" values="0 0 0 0 0 0 0 0 0 0 0 0 0 0 0 0 0 0 127 0" result="hardAlpha"/>
<feOffset dy="4"/>
<feGaussianBlur stdDeviation="2"/>
<feComposite in2="hardAlpha" operator="out"/>
<feColorMatrix type="matrix" values="0 0 0 0 0 0 0 0 0 0 0 0 0 0 0 0 0 0 0.25 0"/>
<feBlend mode="normal" in2="BackgroundImageFix" result="effect1_dropShadow_770_668"/>
<feBlend mode="normal" in="SourceGraphic" in2="effect1_dropShadow_770_668" result="shape"/>
</filter>
</defs>
</svg>
