<svg width="22" height="22" viewBox="0 0 22 22" fill="none" xmlns="http://www.w3.org/2000/svg">
<path d="M17.8747 3.66668H15.1247V2.29168C15.1247 2.17012 15.0764 2.05354 14.9904 1.96759C14.9045 1.88163 14.7879 1.83334 14.6663 1.83334C14.5448 1.83334 14.4282 1.88163 14.3423 1.96759C14.2563 2.05354 14.208 2.17012 14.208 2.29168V3.66668H7.79134V2.29168C7.79134 2.17012 7.74305 2.05354 7.6571 1.96759C7.57114 1.88163 7.45457 1.83334 7.33301 1.83334C7.21145 1.83334 7.09487 1.88163 7.00892 1.96759C6.92296 2.05354 6.87467 2.17012 6.87467 2.29168V3.66668H4.12467C3.51711 3.6674 2.93464 3.90908 2.50503 4.33869C2.07541 4.76831 1.83374 5.35078 1.83301 5.95834V17.875C1.83374 18.4826 2.07541 19.065 2.50503 19.4947C2.93464 19.9243 3.51711 20.1659 4.12467 20.1667H17.8747C18.4825 20.1667 19.0654 19.9252 19.4951 19.4955C19.9249 19.0657 20.1663 18.4828 20.1663 17.875V5.95834C20.1663 5.35056 19.9249 4.76766 19.4951 4.33789C19.0654 3.90812 18.4825 3.66668 17.8747 3.66668ZM19.2497 17.875C19.2497 18.2397 19.1048 18.5894 18.8469 18.8473C18.5891 19.1051 18.2393 19.25 17.8747 19.25H4.12467C3.76 19.25 3.41027 19.1051 3.1524 18.8473C2.89454 18.5894 2.74967 18.2397 2.74967 17.875V10.0833H19.2497V17.875ZM19.2497 9.16668H2.74967V5.95834C2.74967 5.19934 3.36384 4.58334 4.12467 4.58334H6.87467V5.95834C6.87467 6.0799 6.92296 6.19648 7.00892 6.28243C7.09487 6.36839 7.21145 6.41668 7.33301 6.41668C7.45457 6.41668 7.57114 6.36839 7.6571 6.28243C7.74305 6.19648 7.79134 6.0799 7.79134 5.95834V4.58334H14.208V5.95834C14.208 6.0799 14.2563 6.19648 14.3423 6.28243C14.4282 6.36839 14.5448 6.41668 14.6663 6.41668C14.7879 6.41668 14.9045 6.36839 14.9904 6.28243C15.0764 6.19648 15.1247 6.0799 15.1247 5.95834V4.58334H17.8747C18.2393 4.58334 18.5891 4.72821 18.8469 4.98607C19.1048 5.24393 19.2497 5.59367 19.2497 5.95834V9.16668Z" fill="#999999"/>
</svg>
