<svg width="24" height="24" viewBox="0 0 24 24" fill="none" xmlns="http://www.w3.org/2000/svg">
<g clip-path="url(#clip0_147_674)">
<path d="M12.0002 0C11.7774 0 11.5637 0.0884997 11.4062 0.24603C11.2487 0.403561 11.1602 0.617218 11.1602 0.84V20.04C11.1602 20.2628 11.2487 20.4764 11.4062 20.634C11.5637 20.7915 11.7774 20.88 12.0002 20.88C12.2229 20.88 12.4366 20.7915 12.5941 20.634C12.7517 20.4764 12.8402 20.2628 12.8402 20.04V11.28H23.1602C23.3829 11.28 23.5966 11.1915 23.7541 11.034C23.9117 10.8764 24.0002 10.6628 24.0002 10.44V0.84C24.0002 0.617218 23.9117 0.403561 23.7541 0.24603C23.5966 0.0884997 23.3829 0 23.1602 0H12.1202C12.0998 0.000153975 12.0795 0.000954379 12.0592 0.0024C12.0395 0.000994386 12.0199 0.000194007 12.0002 0Z" fill="currentColor"/>
<path d="M9.12077 18.4302C6.57821 18.7897 4.7998 19.6494 4.7998 20.9144C4.7998 22.6184 7.77124 24.0001 11.9998 24.0001C16.2284 24.0001 19.1998 22.6187 19.1998 20.9144C19.1998 19.6491 17.4214 18.7897 14.8791 18.4304L14.5268 19.0302C16.4432 19.2959 17.7598 19.8548 17.7598 20.5031C17.7598 21.4119 15.181 22.1487 11.9998 22.1487C8.8186 22.1487 6.2398 21.4119 6.2398 20.5031C6.23956 19.857 7.5478 19.2987 9.46996 19.0319L9.12077 18.4302Z" fill="currentColor"/>
</g>
<defs>
<clipPath id="clip0_147_674">
<rect width="24" height="24" fill="white"/>
</clipPath>
</defs>
</svg>
