<svg width="24" height="26" viewBox="0 0 13 26" fill="none" xmlns="http://www.w3.org/2000/svg">
<path d="M7.49967 16.7323L11.7497 13.5666C11.983 13.3925 12.1873 13.4251 12.3627 13.6645C12.538 13.9038 12.5587 14.1758 12.4247 14.4804L7.34967 24.8916C7.14967 25.305 6.86634 25.5117 6.49967 25.5117C6.13301 25.5117 5.84967 25.305 5.64967 24.8916L0.574674 14.4804C0.441341 14.1758 0.462341 13.9038 0.637674 13.6645C0.813008 13.4251 1.01701 13.3925 1.24967 13.5666L5.49967 16.7323L5.49967 1.81721C5.49967 1.44732 5.59567 1.13705 5.78767 0.886399C5.97967 0.635746 6.21701 0.510854 6.49967 0.511725C6.78234 0.512595 7.02001 0.637921 7.21267 0.887704C7.40534 1.13749 7.50101 1.44732 7.49967 1.81721L7.49967 16.7323Z" fill="currentColor"/>
</svg>
