<svg width="16" height="16" viewBox="0 0 16 16" fill="none" xmlns="http://www.w3.org/2000/svg">
<g clip-path="url(#clip0_546_599)">
<path d="M8.62066 3.95757C8.54066 3.89632 8.44816 3.85132 8.34066 3.82632C8.23441 3.80257 8.12191 3.78882 8.00066 3.78882C7.87941 3.78882 7.76566 3.80132 7.65816 3.82632C7.54941 3.85007 7.45691 3.89507 7.37566 3.95757C7.29566 4.01882 7.23316 4.10007 7.18691 4.20132C7.14191 4.30257 7.11816 4.43007 7.11816 4.58132C7.11816 4.73007 7.14191 4.85507 7.18691 4.95882C7.23316 5.06007 7.29566 5.14382 7.37566 5.20507C7.45566 5.26632 7.54941 5.31132 7.65816 5.33757C7.76566 5.36382 7.87941 5.37757 8.00066 5.37757C8.12066 5.37757 8.23441 5.36382 8.34066 5.33757C8.44816 5.31132 8.54066 5.26632 8.62066 5.20507C8.70066 5.14382 8.76441 5.06007 8.81191 4.95882C8.85941 4.85507 8.88316 4.73007 8.88316 4.58132C8.88316 4.42882 8.85941 4.30132 8.81191 4.20132C8.76441 4.10007 8.70066 4.01882 8.62066 3.95757ZM7.18941 6.11757H8.81066V12.0563H7.18941V6.11757Z" fill="#40C0E7"/>
<path d="M7.99953 0.0512695C3.61578 0.0512695 0.0507812 3.61627 0.0507812 8.00002C0.0507812 12.3825 3.61578 15.9488 7.99828 15.9488C12.3808 15.9488 15.947 12.3838 15.947 8.00002C15.9483 3.61627 12.382 0.0512695 7.99953 0.0512695ZM7.99953 14.8013C4.24953 14.8013 1.19953 11.75 1.19953 8.00002C1.19953 4.25002 4.24953 1.19877 7.99953 1.19877C11.7495 1.19877 14.8008 4.25002 14.8008 8.00127C14.7995 11.75 11.7483 14.8013 7.99953 14.8013Z" fill="#40C0E7"/>
</g>
<defs>
<clipPath id="clip0_546_599">
<rect width="16" height="16" fill="white"/>
</clipPath>
</defs>
</svg>
