<svg width="24" height="24" viewBox="0 0 24 24" fill="none" xmlns="http://www.w3.org/2000/svg">
<path d="M19.0395 3.93086C18.8306 3.77146 18.5825 3.64504 18.3095 3.55886C18.0364 3.47267 17.7438 3.42839 17.4482 3.42857H13.0254V0H10.8305V3.42857H2.10661C1.51076 3.42925 0.90332 3.42857 0.347969 3.93086C-0.0733607 4.2522 0.00634909 4.90269 0.00545732 5.35714V10.5C0.00634909 10.9544 -0.0733607 11.5482 0.347969 11.8696C0.769298 12.1909 2.49576 11.9993 3.09161 12H10.8305V24H13.0254V12H17.4494C17.7447 12.0001 18.0371 11.9557 18.31 11.8696C18.5829 11.7834 18.8307 11.657 19.0395 11.4977L24 7.71429L19.0395 3.93086ZM17.4482 10.2857L2.10661 10.5V5.35714L17.4505 5.14286L20.8219 7.71429L17.4482 10.2857Z" fill="currentColor"/>
</svg>
