<svg width="16" height="16" viewBox="0 0 16 16" fill="none" xmlns="http://www.w3.org/2000/svg">
<path d="M1.77778 6L3.11111 1.5H12.8889L14.2222 6M12.8889 11C12.5353 11 12.1961 10.842 11.9461 10.5607C11.696 10.2794 11.5556 9.89782 11.5556 9.5C11.5556 9.10218 11.696 8.72064 11.9461 8.43934C12.1961 8.15804 12.5353 8 12.8889 8C13.2425 8 13.5816 8.15804 13.8317 8.43934C14.0817 8.72064 14.2222 9.10218 14.2222 9.5C14.2222 9.89782 14.0817 10.2794 13.8317 10.5607C13.5816 10.842 13.2425 11 12.8889 11ZM3.11111 11C2.75749 11 2.41835 10.842 2.1683 10.5607C1.91825 10.2794 1.77778 9.89782 1.77778 9.5C1.77778 9.10218 1.91825 8.72064 2.1683 8.43934C2.41835 8.15804 2.75749 8 3.11111 8C3.46473 8 3.80387 8.15804 4.05392 8.43934C4.30397 8.72064 4.44444 9.10218 4.44444 9.5C4.44444 9.89782 4.30397 10.2794 4.05392 10.5607C3.80387 10.842 3.46473 11 3.11111 11ZM14.1511 1C13.9733 0.42 13.4756 0 12.8889 0H3.11111C2.52444 0 2.02667 0.42 1.84889 1L0 7V15C0 15.2652 0.0936505 15.5196 0.260349 15.7071C0.427048 15.8946 0.653141 16 0.888889 16H1.77778C2.01353 16 2.23962 15.8946 2.40632 15.7071C2.57302 15.5196 2.66667 15.2652 2.66667 15V14H13.3333V15C13.3333 15.2652 13.427 15.5196 13.5937 15.7071C13.7604 15.8946 13.9865 16 14.2222 16H15.1111C15.3469 16 15.573 15.8946 15.7397 15.7071C15.9064 15.5196 16 15.2652 16 15V7L14.1511 1Z" fill="#09034F"/>
</svg>
