<svg width="16" height="16" viewBox="0 0 16 16" fill="none" xmlns="http://www.w3.org/2000/svg">
<path d="M2.66667 11.7647V6.11765H4.14815V4.23529H0V6.11765H1.48148V11.7647H2.66667ZM10.8697 11.7647L11.7037 9.72694L12.5377 11.7647H13.9512L12.4105 8L13.9512 4.23529H12.5377L11.7037 6.27306L10.8697 4.23529H9.45618L10.9969 8L9.45618 11.7647H10.8697ZM14.8148 4.23529H16V11.7647H14.8148V4.23529ZM0 0H16V1.88235H0V0ZM0 14.1176H16V16H0V14.1176ZM7.45693 10.3529L7.75322 11.7647H9.00252L7.42222 4.23529H5.7203L4.25959 11.7647H5.49974L5.77382 10.3529H7.45693ZM6.58222 6.18506L7.06189 8.47059H6.13881L6.58222 6.18506Z" fill="#393A30"/>
</svg>
