<svg width="16" height="16" viewBox="0 0 16 16" fill="none" xmlns="http://www.w3.org/2000/svg">
<path d="M8 6.22222C8.40856 6.22222 8.81311 6.14175 9.19057 5.9854C9.56803 5.82906 9.91099 5.59989 10.1999 5.311C10.4888 5.02211 10.7179 4.67914 10.8743 4.30168C11.0306 3.92422 11.1111 3.51967 11.1111 3.11111C11.1111 2.70255 11.0306 2.298 10.8743 1.92054C10.7179 1.54308 10.4888 1.20012 10.1999 0.911224C9.91099 0.62233 9.56803 0.393167 9.19057 0.236819C8.81311 0.0804712 8.40856 -8.60969e-09 8 0C7.17488 1.73881e-08 6.38356 0.327777 5.80011 0.911224C5.21667 1.49467 4.88889 2.28599 4.88889 3.11111C4.88889 3.93623 5.21667 4.72755 5.80011 5.311C6.38356 5.89445 7.17488 6.22222 8 6.22222ZM0 15.4667V16H16V15.4667C16 13.4756 16 12.48 15.6124 11.7191C15.2716 11.0501 14.7277 10.5062 14.0587 10.1653C13.2978 9.77778 12.3022 9.77778 10.3111 9.77778H5.68889C3.69778 9.77778 2.70222 9.77778 1.94133 10.1653C1.27234 10.5062 0.728434 11.0501 0.387556 11.7191C1.19209e-07 12.48 0 13.4756 0 15.4667Z" fill="#045002"/>
</svg>
