<svg width="35" height="35" viewBox="0 0 35 35" fill="none" xmlns="http://www.w3.org/2000/svg">
<path d="M17.5003 32.0834C17.16 32.0834 16.8684 31.9861 16.6253 31.7917C16.3823 31.5972 16.2 31.342 16.0785 31.0261C15.6166 29.6649 15.0333 28.3889 14.3285 27.1979C13.6479 26.007 12.6878 24.6094 11.4482 23.0052C10.2087 21.4011 9.19998 19.8698 8.4222 18.4115C7.66873 16.9531 7.29199 15.191 7.29199 13.125C7.29199 10.2813 8.27637 7.87502 10.2451 5.90627C12.2382 3.91321 14.6566 2.91669 17.5003 2.91669C20.3441 2.91669 22.7503 3.91321 24.7191 5.90627C26.7121 7.87502 27.7087 10.2813 27.7087 13.125C27.7087 15.3368 27.2833 17.184 26.4326 18.6667C25.6062 20.125 24.6462 21.5712 23.5524 23.0052C22.2399 24.7552 21.2434 26.2136 20.5628 27.3802C19.9066 28.5226 19.3597 29.7379 18.9222 31.0261C18.8007 31.3663 18.6062 31.6337 18.3389 31.8281C18.0958 31.9983 17.8163 32.0834 17.5003 32.0834ZM17.5003 16.7709C18.5212 16.7709 19.384 16.4184 20.0889 15.7136C20.7937 15.0087 21.1462 14.1459 21.1462 13.125C21.1462 12.1042 20.7937 11.2413 20.0889 10.5365C19.384 9.83162 18.5212 9.47919 17.5003 9.47919C16.4795 9.47919 15.6166 9.83162 14.9118 10.5365C14.2069 11.2413 13.8545 12.1042 13.8545 13.125C13.8545 14.1459 14.2069 15.0087 14.9118 15.7136C15.6166 16.4184 16.4795 16.7709 17.5003 16.7709Z" fill="#1D1B20"/>
</svg>
