<svg width="33" height="33" viewBox="0 0 33 33" fill="none" xmlns="http://www.w3.org/2000/svg">
<path d="M26.0353 23.375V17.5444C26.0353 15.6775 26.0353 14.7441 25.6593 13.9235C25.2832 13.103 24.5769 12.4955 23.1643 11.2806L21.794 10.102L21.794 10.102C19.2408 7.90595 17.9641 6.80792 16.4435 6.80792C14.9228 6.80792 13.6461 7.90595 11.0929 10.102L9.72262 11.2806C8.31003 12.4955 7.60373 13.103 7.22765 13.9235C6.85156 14.7441 6.85156 15.6775 6.85156 17.5444V23.375C6.85156 25.9677 6.85156 27.2641 7.65425 28.0695C8.45693 28.875 9.74884 28.875 12.3326 28.875H20.5543C23.1381 28.875 24.43 28.875 25.2327 28.0695C26.0353 27.2641 26.0353 25.9677 26.0353 23.375Z" stroke="#89898D" stroke-width="2"/>
<path d="M19.8689 28.875V21.625C19.8689 21.0727 19.4212 20.625 18.8689 20.625H14.0176C13.4653 20.625 13.0176 21.0727 13.0176 21.625V28.875" stroke="#89898D" stroke-width="2" stroke-linecap="round" stroke-linejoin="round"/>
</svg>
