<svg width="22" height="21" viewBox="0 0 22 21" fill="none" xmlns="http://www.w3.org/2000/svg">
<g clip-path="url(#clip0_173_548)">
<path fill-rule="evenodd" clip-rule="evenodd" d="M21.7484 0.14808C21.8271 0.209683 21.8905 0.287204 21.934 0.375044C21.9775 0.462884 22.0001 0.558852 22 0.656018V19.031C21.9999 19.1827 21.9448 19.3296 21.844 19.4469C21.7432 19.5641 21.603 19.6444 21.4473 19.6741L14.5722 20.9866C14.4833 21.0036 14.3917 21.0036 14.3028 20.9866L7.5625 19.7004L0.82225 20.9866C0.722547 21.0057 0.619665 21.0033 0.521016 20.9798C0.422367 20.9563 0.330407 20.9122 0.251762 20.8507C0.173116 20.7892 0.109743 20.7118 0.0662087 20.6241C0.022674 20.5364 6.13975e-05 20.4406 0 20.3435L0 1.96852C9.59503e-05 1.81686 0.0552147 1.66992 0.155985 1.55268C0.256755 1.43543 0.396956 1.35512 0.55275 1.32539L7.42775 0.0128928C7.5167 -0.00407877 7.6083 -0.00407877 7.69725 0.0128928L14.4375 1.29914L21.1777 0.0128928C21.2774 -0.00624891 21.3803 -0.00405243 21.479 0.0193241C21.5776 0.0427006 21.6697 0.0866752 21.7484 0.14808ZM13.75 2.50664L8.25 1.45664V18.4929L13.75 19.5429V2.50664ZM15.125 19.5429L20.625 18.4929V1.45664L15.125 2.50664V19.5429ZM6.875 18.4929V1.45664L1.375 2.50664V19.5429L6.875 18.4929Z" fill="#858585"/>
</g>
<defs>
<clipPath id="clip0_173_548">
<rect width="22" height="21" fill="white"/>
</clipPath>
</defs>
</svg>
