<svg width="24" height="24" viewBox="0 0 24 24" fill="none" xmlns="http://www.w3.org/2000/svg">
<path d="M12 9.55556C12.5618 9.55556 13.118 9.44491 13.637 9.22993C14.156 9.01495 14.6276 8.69985 15.0248 8.30262C15.4221 7.90539 15.7372 7.43382 15.9522 6.91481C16.1671 6.39581 16.2778 5.83954 16.2778 5.27778C16.2778 4.71601 16.1671 4.15975 15.9522 3.64074C15.7372 3.12174 15.4221 2.65016 15.0248 2.25293C14.6276 1.8557 14.156 1.5406 13.637 1.32563C13.118 1.11065 12.5618 1 12 1C10.8655 1 9.77739 1.45069 8.97515 2.25293C8.17291 3.05517 7.72222 4.14324 7.72222 5.27778C7.72222 6.41231 8.17291 7.50038 8.97515 8.30262C9.77739 9.10486 10.8655 9.55556 12 9.55556ZM1 22.2667V23H23V22.2667C23 19.5289 23 18.16 22.4671 17.1138C21.9984 16.1939 21.2505 15.446 20.3307 14.9773C19.2844 14.4444 17.9156 14.4444 15.1778 14.4444H8.82222C6.08444 14.4444 4.71556 14.4444 3.66933 14.9773C2.74947 15.446 2.0016 16.1939 1.53289 17.1138C1 18.16 1 19.5289 1 22.2667Z" stroke="#A3A3A3" stroke-width="2" stroke-linecap="round" stroke-linejoin="round"/>
</svg>
